<svg width="314" height="314" viewBox="0 0 314 314" fill="none" xmlns="http://www.w3.org/2000/svg">
<path fill-rule="evenodd" clip-rule="evenodd" d="M226.781 173.346C262.68 173.346 291.781 144.244 291.781 108.346C291.781 72.4475 262.68 43.346 226.781 43.346C190.883 43.346 161.781 72.4475 161.781 108.346C161.781 144.244 190.883 173.346 226.781 173.346ZM217.5 148C239.315 148 257 130.315 257 108.5C257 86.6848 239.315 69 217.5 69C195.685 69 178 86.6848 178 108.5C178 130.315 195.685 148 217.5 148Z" fill="black"/>
<path fill-rule="evenodd" clip-rule="evenodd" d="M92 173.346C127.899 173.346 157 144.244 157 108.346C157 72.4475 127.899 43.346 92 43.346C56.1015 43.346 27 72.4475 27 108.346C27 144.244 56.1015 173.346 92 173.346ZM102.719 148C124.534 148 142.219 130.315 142.219 108.5C142.219 86.6848 124.534 69 102.719 69C80.9035 69 63.2188 86.6848 63.2188 108.5C63.2188 130.315 80.9035 148 102.719 148Z" fill="black"/>
<path fill-rule="evenodd" clip-rule="evenodd" d="M50 176C51.6569 176 53 177.343 53 179C53 236.438 99.5624 283 157 283C214.438 283 261 236.438 261 179C261 177.343 262.343 176 264 176C265.657 176 267 177.343 267 179C267 239.751 217.751 289 157 289C96.2487 289 47 239.751 47 179C47 177.343 48.3431 176 50 176Z" fill="black"/>
</svg>
